<svg width="23" height="40" viewBox="0 0 23 40" fill="none" xmlns="http://www.w3.org/2000/svg">
<path d="M20.3258 0H2.67421C1.20362 0 0 1.21486 0 2.70171V37.2971C0 38.784 1.20362 40 2.67421 40H20.3258C21.7964 40 23 38.7863 23 37.2983V2.70171C23 1.21486 21.7964 0 20.3258 0ZM8.67647 1.94743H14.3235C14.5023 1.94743 14.6471 2.09371 14.6471 2.27543C14.6471 2.456 14.5023 2.60229 14.3235 2.60229H8.67647C8.49774 2.60229 8.35294 2.456 8.35294 2.27543C8.35294 2.09371 8.49774 1.94743 8.67647 1.94743ZM11.5 38.6491C10.7613 38.6491 10.1629 38.0446 10.1629 37.2971C10.1629 36.5497 10.7613 35.9463 11.5 35.9463C12.2387 35.9463 12.8371 36.5497 12.8371 37.2971C12.8371 38.0446 12.2387 38.6491 11.5 38.6491ZM21.1391 35H1.86086V4.28457H21.1391V35Z" fill="white"/>
</svg>
