<svg width="40" height="31" viewBox="0 0 40 31" fill="none" xmlns="http://www.w3.org/2000/svg">
<path d="M35.1169 0H4.89137C2.19325 0 0 2.23355 0 4.98124V26.0188C0 28.7665 2.19325 31 4.89137 31H35.1086C37.8067 31 40 28.7665 40 26.0188V4.98967C40.0083 2.24198 37.815 0 35.1169 0ZM37.7736 26.0188C37.7736 27.5106 36.5818 28.7243 35.1169 28.7243H4.89137C3.42644 28.7243 2.23464 27.5106 2.23464 26.0188V4.98967C2.23464 3.49782 3.42644 2.28412 4.89137 2.28412H35.1086C36.5735 2.28412 37.7653 3.49782 37.7653 4.98967V26.0188H37.7736Z" fill="white"/>
<path d="M25.2264 15.2387L35.0092 6.30454C35.4644 5.88312 35.5058 5.16669 35.0919 4.6947C34.6781 4.23113 33.9746 4.18899 33.5112 4.61041L20.0206 16.9413L17.3887 14.5476C17.3804 14.5392 17.3721 14.5308 17.3721 14.5223C17.3142 14.4633 17.2562 14.4128 17.19 14.3622L6.48033 4.60198C6.01685 4.18056 5.31336 4.2227 4.89954 4.6947C4.48572 5.16669 4.5271 5.88312 4.99058 6.30454L14.8892 15.3146L5.03196 24.7124C4.58503 25.1422 4.5602 25.8587 4.9823 26.3222C5.20576 26.5582 5.50372 26.6846 5.80167 26.6846C6.07479 26.6846 6.34791 26.5835 6.5631 26.3812L16.5693 16.8486L19.284 19.3181C19.4992 19.512 19.764 19.6047 20.0288 19.6047C20.2937 19.6047 20.5668 19.5036 20.7737 19.3097L23.5629 16.7643L33.5112 26.3897C33.7263 26.6004 34.0077 26.7015 34.2809 26.7015C34.5788 26.7015 34.8685 26.5835 35.0919 26.3475C35.514 25.8924 35.4975 25.1675 35.0506 24.7377L25.2264 15.2387Z" fill="white"/>
</svg>
