<?xml version="1.0" encoding="UTF-8" standalone="no"?>
<!-- Created with Inkscape (http://www.inkscape.org/) -->

<svg
   xmlns:sketch="http://www.bohemiancoding.com/sketch/ns"
   xmlns:dc="http://purl.org/dc/elements/1.1/"
   xmlns:cc="http://creativecommons.org/ns#"
   xmlns:rdf="http://www.w3.org/1999/02/22-rdf-syntax-ns#"
   xmlns:svg="http://www.w3.org/2000/svg"
   xmlns="http://www.w3.org/2000/svg"
   xmlns:sodipodi="http://sodipodi.sourceforge.net/DTD/sodipodi-0.dtd"
   xmlns:inkscape="http://www.inkscape.org/namespaces/inkscape"
   width="1400"
   height="100"
   viewBox="0 0 0.014 0.001"
   version="1.1"
   id="svg8"
   inkscape:version="0.92.4 (5da689c313, 2019-01-14)"
   sodipodi:docname="sprite.svg">
  <defs
     id="defs2">
    <clipPath
       id="A">
      <path
         id="path900"
         d="M 11.52,162 C 11.52,81.677 135.307,16.56 288,16.56 440.693,16.56 564.48,81.677 564.48,162 564.48,242.323 440.693,307.44 288,307.44 135.307,307.44 11.52,242.322 11.52,162"
         inkscape:connector-curvature="0" />
    </clipPath>
    <radialGradient
       spreadMethod="pad"
       r="1"
       id="B"
       gradientUnits="userSpaceOnUse"
       gradientTransform="matrix(363.05789,0,0,-363.05789,177.52002,256.30713)"
       fy="0"
       fx="0"
       cy="0"
       cx="0">
      <stop
         id="stop903"
         stop-color="#aeb2d5"
         offset="0" />
      <stop
         id="stop905"
         stop-color="#aeb2d5"
         offset=".3" />
      <stop
         id="stop907"
         stop-color="#484c89"
         offset=".75" />
      <stop
         id="stop909"
         stop-color="#484c89"
         offset="1" />
    </radialGradient>
    <clipPath
       id="C">
      <path
         id="path912"
         d="M 0,324 H 576 V 0 H 0 Z"
         inkscape:connector-curvature="0" />
    </clipPath>
    <clipPath
       id="D">
      <path
         id="path915"
         d="M 0,324 H 576 V 0 H 0 Z"
         inkscape:connector-curvature="0" />
    </clipPath>
    <linearGradient
       y2="186.80064"
       y1="11.940415"
       x2="153.66708"
       x1="72.391037"
       id="A-2"
       gradientTransform="scale(1.0084398,0.99163087)"
       gradientUnits="userSpaceOnUse">
      <stop
         id="stop1003"
         stop-color="#A0CBFF"
         offset="0" />
      <stop
         id="stop1005"
         stop-color="#A0CBFE"
         offset=".394" />
      <stop
         id="stop1007"
         stop-color="#8EC2FC"
         offset=".583" />
      <stop
         id="stop1009"
         stop-color="#83BCFB"
         offset=".784" />
      <stop
         id="stop1011"
         stop-color="#7FBAFB"
         offset="1" />
    </linearGradient>
    <linearGradient
       y2="197.78375"
       y1="42.348381"
       x2="147.27441"
       x1="101.23271"
       id="B-3"
       gradientTransform="scale(1.0084266,0.99164379)"
       gradientUnits="userSpaceOnUse">
      <stop
         id="stop1014"
         stop-color="#090058"
         offset="0" />
      <stop
         id="stop1016"
         stop-color="#070033"
         offset="1" />
    </linearGradient>
    <linearGradient
       y2="158.90828"
       y1="17.157701"
       x2="158.37749"
       x1="58.088943"
       id="C-5"
       gradientTransform="scale(0.81776034,1.2228522)"
       gradientUnits="userSpaceOnUse">
      <stop
         id="stop1019"
         stop-color="#A0CBFF"
         offset="0" />
      <stop
         id="stop1021"
         stop-color="#A0CBFE"
         offset=".394" />
      <stop
         id="stop1023"
         stop-color="#8EC2FC"
         offset=".583" />
      <stop
         id="stop1025"
         stop-color="#83BCFB"
         offset=".784" />
      <stop
         id="stop1027"
         stop-color="#7FBAFB"
         offset="1" />
    </linearGradient>
    <linearGradient
       y2="143.49689"
       y1="-1.3481351"
       x2="212.18513"
       x1="113.23105"
       id="D-4"
       gradientTransform="scale(0.83219879,1.201636)"
       gradientUnits="userSpaceOnUse">
      <stop
         id="stop1030"
         stop-color="#A0CBFF"
         offset="0" />
      <stop
         id="stop1032"
         stop-color="#A0CBFE"
         offset=".394" />
      <stop
         id="stop1034"
         stop-color="#8EC2FC"
         offset=".583" />
      <stop
         id="stop1036"
         stop-color="#83BCFB"
         offset=".784" />
      <stop
         id="stop1038"
         stop-color="#7FBAFB"
         offset="1" />
    </linearGradient>
  </defs>
  <sodipodi:namedview
     id="base"
     pagecolor="#ffffff"
     bordercolor="#666666"
     borderopacity="1.0"
     inkscape:pageopacity="0.0"
     inkscape:pageshadow="2"
     inkscape:zoom="1.2529932"
     inkscape:cx="1069.7404"
     inkscape:cy="85.970011"
     inkscape:document-units="px"
     inkscape:current-layer="layer1"
     showgrid="false"
     units="px"
     inkscape:window-width="1366"
     inkscape:window-height="706"
     inkscape:window-x="-8"
     inkscape:window-y="-8"
     inkscape:window-maximized="1" />
  <metadata
     id="metadata5">
    <rdf:RDF>
      <cc:Work
         rdf:about="">
        <dc:format>image/svg+xml</dc:format>
        <dc:type
           rdf:resource="http://purl.org/dc/dcmitype/StillImage" />
        <dc:title />
      </cc:Work>
    </rdf:RDF>
  </metadata>
  <g
     inkscape:label="Layer 1"
     inkscape:groupmode="layer"
     id="layer1"
     transform="translate(0,-270.54167)">
    <g
       id="g835"
       transform="matrix(4.1426951e-6,0,0,4.1094577e-6,-3.0262905e-5,270.54162)">
      <path
         id="path815"
         d="M 224.555,24.795 206.962,221.88 127.882,243.802 49.02,221.9 31.444,24.795 h 193.1 z"
         inkscape:connector-curvature="0"
         style="fill:#e44d26" />
      <path
         id="path817"
         d="m 127.196,225.436 63.9,-17.715 15.034,-168.416 h -78.934 v 186.132 z"
         inkscape:connector-curvature="0"
         style="fill:#f16529" />
      <path
         id="path819"
         d="m 92.996,87.655 h 34.2 V 63.48 h -60.62 l 6.52,73.105 h 54.1 V 112.41 h -32 z m 5.448,61.02 H 74.176 l 3.387,37.958 49.52,13.748 0.113,-0.03 v -25.154 l -0.106,0.03 -26.924,-7.27 z"
         inkscape:connector-curvature="0"
         style="fill:#ebebeb" />
      <path
         id="path821"
         d="m 127.112,136.586 h 29.77 l -2.807,31.353 -26.963,7.277 v 25.15 l 49.56,-13.735 6.634,-74.22 h -56.194 v 24.174 z m 0,-49 v 0.06 h 58.395 l 0.485,-5.435 1.68,-18.74 h -60.56 v 24.116 z"
         inkscape:connector-curvature="0"
         style="fill:#ffffff" />
    </g>
    <g
       id="g857"
       transform="matrix(2.3529412e-5,0,0,2.3684211e-5,9.3529412e-4,270.5416)">
      <path
         id="path837"
         d="M 41,5 H 7 l 3,34 14,4 14,-4 z"
         inkscape:connector-curvature="0"
         style="fill:#0277bd" />
      <polygon
         id="polygon839"
         points="24,39.9 35.2,36.7 37.7,8 24,8 "
         style="fill:#039be5" />
      <polygon
         id="polygon841"
         points="28.4,25 28.1,29.5 24,30.9 24,35.1 31.9,32.5 32.6,21 33.1,13 24,13 24,17 28.9,17 28.6,21 24,21 24,25 "
         style="fill:#ffffff" />
      <path
         id="path843"
         d="m 24,13 v 4 h -8.9 l -0.3,-4 z m -4.6,8 0.2,4 H 24 v -4 z m 0.4,6 h -4 l 0.3,5.5 7.9,2.6 v -4.2 l -4.1,-1.4 z"
         inkscape:connector-curvature="0"
         style="fill:#eeeeee" />
    </g>
    <g
       id="g873"
       transform="matrix(4.1474654e-6,0,0,4.1474654e-6,0.00196912,270.54164)"
       style="stroke-width:1.11111104">
      <path
         id="path859"
         d="m 19.5,208.52 c 0,15.455 12.527,27.98 27.98,27.98 h 161.04 c 15.455,0 27.98,-12.527 27.98,-27.98 V 47.48 C 236.5,32.025 223.973,19.5 208.52,19.5 H 47.48 C 32.025,19.5 19.5,32.027 19.5,47.48 Z"
         inkscape:connector-curvature="0"
         style="fill:#563d7c;stroke-width:1.11111104" />
      <path
         id="path861"
         d="m 109.485,115.487 v -30.73 h 27.05 c 2.577,0 5.06,0.214 7.453,0.644 2.393,0.43 4.508,1.197 6.348,2.3 1.84,1.103 3.313,2.638 4.417,4.6 1.104,1.962 1.656,4.48 1.656,7.546 0,5.52 -1.657,9.507 -4.97,11.96 -3.313,2.453 -7.544,3.68 -12.696,3.68 h -29.26 z m -28.9,-53.18 v 131.386 h 63.67 c 5.887,0 11.623,-0.736 17.204,-2.208 5.581,-1.472 10.55,-3.74 14.905,-6.808 4.355,-3.068 7.82,-7.024 10.396,-11.87 2.576,-4.846 3.866,-10.58 3.866,-17.205 0,-8.22 -1.994,-15.242 -5.98,-21.07 -3.986,-5.828 -10.03,-9.906 -18.126,-12.236 5.888,-2.822 10.335,-6.44 13.34,-10.857 3.005,-4.417 4.5,-9.938 4.5,-16.563 0,-6.134 -1.013,-11.286 -3.037,-15.457 -2.024,-4.171 -4.876,-7.514 -8.557,-10.03 -3.681,-2.516 -8.096,-4.323 -13.25,-5.427 -5.154,-1.104 -10.856,-1.656 -17.112,-1.656 h -61.83 z m 28.9,108.937 v -36.067 h 31.467 c 6.256,0 11.286,1.44 15.1,4.324 3.814,2.884 5.703,7.7 5.703,14.446 0,3.435 -0.582,6.257 -1.748,8.465 -1.166,2.208 -2.73,3.957 -4.692,5.245 -1.962,1.288 -4.232,2.208 -6.8,2.76 -2.568,0.552 -5.274,0.83 -8.095,0.83 h -30.915 z"
         inkscape:connector-curvature="0"
         style="fill:#ffffff;stroke-width:1.11111104" />
    </g>
    <g
       id="g885"
       transform="matrix(2.5429126e-6,0,0,2.8973742e-6,0.00300002,270.54182)">
      <path
         id="path875"
         d="M 60.6,187.8 C 70.8,175.6 72,163 64.1,139.6 c -5,-14.8 -13.3,-26.2 -7.2,-35.4 6.5,-9.8 20.3,-0.3 8.8,12.8 l 2.3,1.6 c 13.8,1.6 20.6,-17.3 10.3,-22.7 -27.2,-14.2 -51,13.1 -40.5,44.7 4.5,13.4 10.8,27.6 5.7,38.9 -4.4,9.7 -12.9,15.4 -18.6,15.6 -11.9,0.6 -4,-26.7 9.7,-33.5 1.2,-0.6 2.9,-1.4 1.3,-3.4 C 19,156.3 9.1,164.1 3.4,175 c -16.6,31.7 31.5,43.4 57.2,12.8 z"
         inkscape:connector-curvature="0"
         style="fill:#333333" />
      <path
         id="path877"
         d="m 357.6,94.6 c 3.9,9.6 9.8,19.1 6.3,27.5 -2.9,7.2 -6.7,10.2 -10.9,10.9 -5.9,1 -4.3,-17.5 5.8,-23 0.9,-0.5 2.2,-2.9 1,-4.3 -12.8,-0.7 -20,5.4 -23.9,13.5 -11.3,23.7 25.6,30.2 43.7,6.9 7.2,-9.3 7.5,-18.5 0.6,-35.2 -4.4,-10.6 -11.1,-18.5 -6.9,-25.5 4.5,-7.4 15.3,-1 7.2,8.9 l 1.8,1 c 10.5,0.6 14.8,-13.4 6.8,-16.9 -21.1,-9 -40.8,13.7 -31.5,36.2 z"
         inkscape:connector-curvature="0"
         style="fill:#333333" />
      <path
         id="path879"
         d="m 224,69.3 c -7.3,-5.8 -27.8,3.9 -33.6,18.3 -7.3,18.3 -18.1,45 -28.7,56.7 -11.2,12.3 -12.3,2.8 -11.2,-4.3 2.6,-16.7 18.9,-55.4 27.8,-66.3 -3.3,-4.9 -24.9,-4.2 -39.9,19.1 -5.6,8.8 -18.4,38.1 -32.6,61.2 -3.1,5 -7,1.5 -4,-10.2 3.4,-13.5 13.4,-50.6 26.3,-79.8 33.8,-6.7 69.7,-11.4 97.2,-11.5 3.7,-1 6.2,-4.3 0,-4.5 -23.7,-0.8 -59.3,2 -92.6,6.2 6.4,-12.8 13.3,-23 20.3,-27.3 -7.6,-4.8 -23,-2.9 -31.8,10.1 -3.9,5.8 -7.8,12.8 -11.5,20.4 -24.4,3.8 -45.3,8.1 -55.9,12.1 -11,4.2 -9.8,17.5 -3.1,15 13.9,-5.2 32.7,-10.6 53.6,-15.4 -13.3,30 -23.7,65.4 -26.2,79.8 -6.2,35 15.5,34.8 26.1,21 11.5,-15.1 35.5,-68.2 39.2,-73.8 1.1,-1.9 2.6,-0.9 1.8,0.8 -26.8,53.5 -24.5,74.2 -2.8,69.6 9.8,-2.1 26.7,-18.9 31.1,-27.6 0.9,-2.1 2.8,-1.9 2.4,-1 -17,44.1 -38.6,79.8 -53.1,91 -13.2,10.1 -23,-11.8 23.7,-43.2 6.9,-4.7 3.7,-11.1 -4.1,-8.9 0,0 0,0 0,0 -24.1,3.8 -93.1,25.7 -123.4,46.7 -2.3,1.6 -4.4,2.9 -4.3,6.2 0.1,1.9 3.4,1.2 5,0.2 39.2,-23.5 71.3,-32.7 108.1,-40.4 0.5,0.2 1.1,0.3 1.6,0.1 1.7,-0.4 1.6,0.5 0.5,1.2 -2.5,1.4 -5,2.7 -5.6,2.9 -24.8,9.7 -39.8,31.1 -34.5,42 4.5,9.4 28.8,6 40.3,-0.2 28.2,-15.3 48.7,-45.3 62.7,-86.7 C 205,112.1 220.4,70.5 224,69.3 Z"
         inkscape:connector-curvature="0"
         style="fill:#333333" />
      <path
         id="path881"
         d="m 387.9,154 c -45.9,-6 -144.9,2 -188.6,13.6 -13,3.4 -9.4,10.3 -2.8,9 0.1,0 2.9,-0.7 3,-0.7 35.9,-7 123,-13.1 173.8,-3.4 6.1,1.1 24.4,-17.2 14.6,-18.5 z"
         inkscape:connector-curvature="0"
         style="fill:#333333" />
      <path
         id="path883"
         d="m 236.8,148.6 c 12.8,-6.4 31.8,-46 44.3,-67.7 0.9,-1.6 2.5,-0.3 1.6,0.8 -31.6,54.4 -18.2,60.7 -5.7,59.9 16.7,-1 32.1,-25 35.5,-30.4 1.4,-2.1 2.2,-0.4 1.4,1.1 -0.8,2.5 -3.7,6.9 -6.4,12.9 -3.8,8.5 0.2,11.8 3.5,13.3 5.2,2.5 19.4,0.9 21.6,-7.8 -14.2,-0.3 19.8,-67.3 23.3,-71.4 -9.5,-5.5 -24.2,0.5 -30.9,13.7 -14.3,28.3 -26.3,51.1 -33.8,51.5 -14.6,0.8 16.8,-63.1 21.9,-65.1 -3.1,-4.5 -23,-2.6 -34.1,14.6 -4,6.2 -28.4,49.4 -34.4,56.5 -10.6,12.6 -11.4,1.8 -8.4,-10.8 1,-4.3 2.7,-9.8 4.9,-15.9 7,-15.8 14.5,-20.8 19.1,-25.9 30.9,-34.3 48.6,-62.1 41.6,-73 -6.2,-9.7 -26.9,-5.4 -40.2,14.6 -24.5,36.7 -47.1,87 -50,110 -2.8,23 13.9,24.7 25.2,19.1 z m 13,-67.3 c 1.1,-2.5 1.8,-3.2 3.7,-7.4 0,0 0,0 0,0 11,-24.2 24.8,-49.7 34.3,-61.6 5.9,-6.2 14.2,2.2 -0.8,25.2 -8.8,13.6 -18.8,26.1 -29.7,37.1 0,0 0,0 0,0.1 -2.8,3.1 -5.3,5.7 -6.4,7.2 -0.8,1 -1.7,0.8 -1.1,-0.6 z"
         inkscape:connector-curvature="0"
         style="fill:#333333" />
    </g>
    <g
       sketch:type="MSPage"
       id="Page-1"
       transform="matrix(2.8719117e-6,0,0,2.5953919e-6,0.00424864,270.54167)"
       style="fill:none;fill-rule:evenodd;stroke:none;stroke-width:1">
      <g
         sketch:type="MSArtboardGroup"
         id="gulp"
         style="fill:#da4648">
        <g
           transform="translate(0,1)"
           sketch:type="MSLayerGroup"
           id="Gulp-Logo">
          <path
             sketch:type="MSShapeGroup"
             id="Cup"
             d="m 86.72,303.739 c -22.574,0 -40.017,-3.391 -48.405,-5.412 -5.736,-1.382 -10.342,-2.812 -13.841,-4.281 l 11.187,19.113 4.376,59.719 c 0,6.695 21.268,12.122 47.503,12.122 26.235,0 47.503,-5.427 47.503,-12.122 l 3.465,-60.369 10.585,-18.519 c -3.514,1.489 -8.161,2.938 -13.969,4.337 -8.388,2.021 -25.831,5.412 -48.404,5.412 z M 149.456,109.411 C 132.888,111.725 110.899,113 87.54,113 64.181,113 42.192,111.725 25.624,109.411 17.417,108.265 10.924,106.913 6.325,105.395 5.228,105.032 3.369,104.413 1.58,103.427 L 11.845,197.9 c 0.477,-1.627 1.008,-3.252 1.597,-4.871 1.205,-3.318 2.599,-6.562 4.181,-9.731 1.583,-3.168 3.306,-6.163 5.169,-8.984 1.862,-2.82 3.845,-5.417 5.946,-7.79 2.102,-2.372 4.258,-4.412 6.472,-6.122 2.213,-1.708 4.447,-3.044 6.702,-4.006 2.256,-0.962 4.49,-1.444 6.703,-1.444 2.549,0 5.015,0.697 7.397,2.091 2.381,1.393 4.607,3.65 6.681,6.769 0.476,0.697 0.778,1.402 0.903,2.115 0.127,0.714 0.189,1.386 0.189,2.016 0,1.493 -0.357,2.672 -1.071,3.534 -0.714,0.863 -1.562,1.294 -2.542,1.294 -0.898,0 -1.731,-0.473 -2.501,-1.418 -0.771,-0.946 -1.632,-2.298 -2.585,-4.057 -0.897,-1.593 -1.884,-2.745 -2.962,-3.459 -1.079,-0.713 -2.248,-1.07 -3.509,-1.07 -1.961,0 -4.055,0.813 -6.282,2.439 -2.228,1.625 -4.434,3.774 -6.618,6.445 -2.186,2.672 -4.28,5.724 -6.283,9.159 -2.003,3.434 -3.776,6.951 -5.317,10.551 -1.541,3.602 -2.765,7.153 -3.676,10.653 -0.911,3.5 -1.366,6.644 -1.366,9.431 0,0.93 0.064,1.885 0.189,2.862 0.127,0.98 0.364,1.867 0.715,2.664 0.349,0.797 0.826,1.451 1.428,1.964 0.603,0.516 1.366,0.772 2.29,0.772 1.037,0 2.213,-0.348 3.531,-1.045 1.316,-0.695 2.682,-1.609 4.096,-2.736 1.415,-1.129 2.837,-2.406 4.266,-3.834 1.43,-1.426 2.76,-2.869 3.992,-4.33 1.232,-1.459 2.325,-2.862 3.277,-4.205 0.953,-1.344 1.667,-2.514 2.144,-3.51 l 3.908,-11.697 c 0.476,-1.26 1.099,-2.156 1.87,-2.687 0.77,-0.531 1.562,-0.797 2.375,-0.797 0.391,0 0.783,0.067 1.176,0.199 0.393,0.133 0.742,0.341 1.051,0.622 0.308,0.283 0.553,0.647 0.735,1.096 0.182,0.447 0.273,0.97 0.273,1.567 0,1.593 -0.14,3.085 -0.42,4.48 -0.28,1.395 -0.637,2.754 -1.072,4.082 -0.434,1.326 -0.918,2.662 -1.45,4.006 -0.532,1.344 -1.051,2.746 -1.554,4.207 -0.112,0.166 -0.315,0.687 -0.61,1.566 -0.294,0.881 -0.65,1.985 -1.071,3.311 -0.42,1.328 -0.876,2.812 -1.366,4.455 -0.491,1.643 -0.994,3.318 -1.512,5.027 -0.519,1.709 -1.016,3.385 -1.492,5.028 -0.477,1.642 -0.905,3.127 -1.282,4.455 -0.378,1.326 -0.693,2.437 -0.946,3.334 -0.252,0.896 -0.406,1.426 -0.462,1.594 -0.14,0.529 -0.365,1.119 -0.672,1.765 -0.308,0.647 -0.672,1.262 -1.093,1.842 -0.42,0.58 -0.882,1.063 -1.387,1.443 -0.504,0.381 -1.022,0.573 -1.555,0.573 -0.896,0 -1.548,-0.299 -1.953,-0.895 -0.407,-0.598 -0.609,-1.693 -0.609,-3.285 v -0.697 c 0,-0.233 0.013,-0.483 0.041,-0.746 0.027,-0.532 0.238,-1.528 0.631,-2.989 0.392,-1.459 0.861,-3.109 1.408,-4.951 0.546,-1.842 1.135,-3.75 1.765,-5.725 0.629,-1.974 1.197,-3.74 1.702,-5.3 -1.487,1.66 -3.096,3.31 -4.833,4.953 -1.738,1.642 -3.517,3.119 -5.337,4.429 -1.822,1.311 -3.657,2.381 -5.505,3.211 -1.849,0.829 -3.628,1.245 -5.337,1.245 -1.961,0 -3.649,-0.432 -5.065,-1.295 -0.255,-0.157 -0.496,-0.332 -0.736,-0.506 l 5.712,59.888 c 1.487,3.727 29.481,12.884 66.391,12.884 36.927,0 64.932,-9.166 66.393,-12.89 l 8.205,-71.202 c -0.679,0.623 -1.34,1.232 -1.972,1.822 -2.354,2.189 -4.575,4.072 -6.662,5.648 -2.086,1.576 -4.125,2.797 -6.114,3.658 -1.99,0.864 -4.119,1.295 -6.388,1.295 -2.129,0 -3.776,-0.465 -4.938,-1.394 -1.162,-0.928 -1.744,-2.205 -1.744,-3.832 v -0.373 c 0,-0.116 0.014,-0.258 0.043,-0.424 0.111,-0.994 0.547,-2.141 1.303,-3.434 0.756,-1.295 1.666,-2.638 2.73,-4.031 1.065,-1.394 2.199,-2.805 3.404,-4.232 1.205,-1.426 2.319,-2.778 3.342,-4.057 1.022,-1.275 1.869,-2.445 2.541,-3.508 0.674,-1.062 1.01,-1.924 1.01,-2.588 0,-0.398 -0.141,-0.713 -0.42,-0.947 -0.281,-0.23 -0.744,-0.348 -1.387,-0.348 -1.121,0 -2.277,0.291 -3.466,0.871 -1.192,0.58 -2.37,1.362 -3.532,2.34 -1.162,0.979 -2.297,2.1 -3.404,3.36 -1.105,1.261 -2.142,2.572 -3.109,3.931 -0.967,1.362 -1.848,2.731 -2.647,4.108 -0.799,1.377 -1.478,2.646 -2.039,3.806 -0.168,0.366 -0.406,0.881 -0.715,1.543 -0.308,0.664 -0.644,1.412 -1.008,2.241 -0.365,0.83 -0.75,1.685 -1.156,2.562 -0.406,0.881 -0.777,1.711 -1.113,2.49 -0.336,0.78 -0.637,1.475 -0.902,2.09 -0.268,0.613 -0.457,1.037 -0.569,1.27 -0.14,0.298 -0.371,0.861 -0.693,1.691 -0.322,0.83 -0.694,1.801 -1.113,2.912 -0.42,1.111 -0.862,2.281 -1.325,3.51 -0.46,1.226 -0.896,2.389 -1.302,3.484 -0.407,1.094 -0.764,2.057 -1.071,2.887 -0.308,0.828 -0.506,1.393 -0.59,1.692 -0.279,0.863 -0.609,1.674 -0.986,2.44 -0.379,0.762 -0.812,1.434 -1.303,2.016 -0.49,0.58 -1.05,1.044 -1.681,1.392 -0.631,0.35 -1.338,0.523 -2.121,0.523 -1.01,0 -1.842,-0.242 -2.502,-0.722 -0.657,-0.481 -0.987,-1.403 -0.987,-2.762 0,-0.664 0.084,-1.344 0.252,-2.04 0.168,-0.697 0.379,-1.387 0.631,-2.066 0.252,-0.682 0.512,-1.344 0.778,-1.991 0.265,-0.648 0.511,-1.269 0.734,-1.867 1.514,-3.318 3.055,-6.644 4.623,-9.98 1.568,-3.334 3.074,-6.635 4.518,-9.904 0.3,-0.682 0.576,-1.35 0.869,-2.028 -0.088,0.086 -0.174,0.176 -0.26,0.26 -1.822,1.76 -3.635,3.31 -5.442,4.654 -1.808,1.344 -3.601,2.414 -5.378,3.211 -1.78,0.795 -3.51,1.194 -5.192,1.194 -1.148,0 -2.107,-0.182 -2.877,-0.547 -0.771,-0.366 -1.386,-0.864 -1.849,-1.493 -0.463,-0.63 -0.793,-1.377 -0.989,-2.24 -0.066,-0.295 -0.107,-0.603 -0.15,-0.91 -0.492,0.383 -0.988,0.756 -1.488,1.11 -1.737,1.226 -3.446,2.214 -5.127,2.96 -1.68,0.747 -3.194,1.12 -4.537,1.12 -1.346,0 -2.438,-0.448 -3.28,-1.344 -0.84,-0.895 -1.259,-2.422 -1.259,-4.578 0,-1.528 0.224,-3.303 0.671,-5.326 -0.728,1.294 -1.638,2.605 -2.73,3.931 -1.094,1.328 -2.34,2.539 -3.74,3.635 -1.403,1.094 -2.971,1.982 -4.707,2.662 -1.738,0.68 -3.629,1.02 -5.673,1.02 -0.925,0 -1.814,-0.116 -2.669,-0.348 -0.855,-0.233 -1.604,-0.631 -2.248,-1.195 -0.645,-0.563 -1.162,-1.319 -1.555,-2.264 -0.392,-0.945 -0.588,-2.133 -0.588,-3.559 0,-0.033 0.056,-0.539 0.168,-1.519 0.112,-0.979 0.469,-2.522 1.072,-4.629 0.602,-2.106 1.534,-4.836 2.793,-8.188 1.262,-3.351 3.041,-7.416 5.338,-12.193 0.588,-1.262 1.268,-2.166 2.037,-2.713 0.772,-0.548 1.604,-0.822 2.5,-0.822 0.393,0 0.799,0.059 1.219,0.174 0.422,0.117 0.813,0.299 1.178,0.548 0.363,0.249 0.658,0.565 0.883,0.946 0.222,0.381 0.336,0.82 0.336,1.318 0,0.332 -0.043,0.649 -0.127,0.945 -0.141,0.567 -0.442,1.303 -0.902,2.215 -0.463,0.914 -1.003,1.959 -1.62,3.137 -0.615,1.178 -1.267,2.447 -1.953,3.809 -0.687,1.359 -1.324,2.769 -1.912,4.23 -0.588,1.461 -1.093,2.945 -1.513,4.455 -0.42,1.51 -0.659,2.979 -0.714,4.405 0,0.597 0.139,1.144 0.42,1.642 0.28,0.498 0.743,0.746 1.387,0.746 1.82,0 3.557,-0.598 5.211,-1.791 1.652,-1.195 3.178,-2.68 4.58,-4.455 1.401,-1.775 2.668,-3.684 3.803,-5.725 1.135,-2.041 2.08,-3.906 2.836,-5.599 0.533,-1.127 1.002,-2.34 1.408,-3.633 0.406,-1.295 0.848,-2.488 1.324,-3.584 0.477,-1.096 1.022,-2.008 1.639,-2.738 0.615,-0.729 1.387,-1.095 2.31,-1.095 1.01,0 1.807,0.382 2.397,1.145 0.588,0.764 0.881,1.676 0.881,2.737 0,0.597 -0.188,1.42 -0.567,2.465 -0.379,1.045 -0.855,2.24 -1.429,3.584 -0.575,1.344 -1.198,2.779 -1.869,4.304 -0.672,1.528 -1.297,3.078 -1.869,4.655 -0.577,1.576 -1.051,3.119 -1.43,4.629 -0.379,1.509 -0.567,2.912 -0.567,4.205 0,1.195 0.616,1.793 1.848,1.793 0.869,0 1.947,-0.299 3.236,-0.897 1.289,-0.598 2.641,-1.435 4.055,-2.514 0.353,-0.269 0.709,-0.55 1.062,-0.845 0.395,-1.629 0.858,-3.135 1.397,-4.504 0.98,-2.59 1.975,-5.16 2.984,-7.715 1.008,-2.555 1.932,-4.895 2.774,-7.019 l 12.732,-32.104 c 0.504,-1.294 1.184,-2.207 2.037,-2.738 0.856,-0.53 1.717,-0.796 2.586,-0.796 0.867,0 1.658,0.282 2.373,0.846 0.715,0.565 1.073,1.477 1.073,2.738 0,0.597 -0.12,1.228 -0.358,1.891 -0.238,0.664 -0.539,1.377 -0.904,2.14 -0.699,1.561 -1.533,3.468 -2.5,5.724 -0.967,2.257 -2.004,4.713 -3.11,7.367 -1.107,2.655 -2.242,5.417 -3.404,8.287 -1.162,2.871 -2.297,5.666 -3.404,8.387 -1.105,2.722 -2.143,5.3 -3.11,7.74 -0.966,2.439 -1.798,4.555 -2.5,6.346 -0.308,0.763 -0.609,1.652 -0.902,2.664 -0.295,1.011 -0.441,1.916 -0.441,2.713 0,0.496 0.084,0.894 0.252,1.193 0.168,0.299 0.49,0.449 0.966,0.449 0.588,0 1.323,-0.207 2.206,-0.623 0.882,-0.414 1.834,-0.963 2.857,-1.643 1.024,-0.679 2.088,-1.459 3.193,-2.339 1.108,-0.879 2.207,-1.791 3.299,-2.737 1.094,-0.947 2.137,-1.892 3.131,-2.838 0.994,-0.945 1.885,-1.816 2.67,-2.613 0.184,-0.191 0.404,-0.326 0.646,-0.427 0.473,-1.413 0.905,-2.797 1.286,-4.151 0.224,-0.598 0.533,-1.443 0.925,-2.539 0.391,-1.096 0.84,-2.174 1.344,-3.236 0.504,-1.061 1.073,-1.983 1.701,-2.762 0.631,-0.779 1.311,-1.17 2.039,-1.17 1.121,0 1.934,0.258 2.438,0.771 0.504,0.516 0.756,1.27 0.756,2.266 0,0.199 -0.028,0.514 -0.084,0.945 -0.057,0.432 -0.125,0.889 -0.209,1.37 -0.084,0.48 -0.176,0.937 -0.274,1.369 -0.099,0.431 -0.189,0.746 -0.273,0.945 1.035,-1.129 2.156,-2.248 3.361,-3.359 1.205,-1.112 2.451,-2.118 3.74,-3.012 1.29,-0.897 2.606,-1.625 3.952,-2.192 1.343,-0.562 2.689,-0.845 4.033,-0.845 0.924,0 1.842,0.133 2.752,0.399 0.91,0.265 1.724,0.655 2.437,1.169 0.715,0.516 1.297,1.162 1.744,1.942 0.448,0.779 0.672,1.683 0.672,2.712 0,1.362 -0.342,2.813 -1.029,4.356 -0.686,1.543 -1.547,3.094 -2.584,4.652 -1.037,1.561 -2.158,3.078 -3.361,4.555 -1.205,1.477 -2.332,2.82 -3.383,4.031 -1.051,1.213 -1.934,2.24 -2.649,3.086 -0.712,0.848 -1.086,1.42 -1.113,1.719 0,0.398 0.127,0.721 0.379,0.971 0.252,0.248 0.672,0.373 1.26,0.373 0.476,0 1.178,-0.266 2.101,-0.797 0.924,-0.531 2.221,-1.451 3.887,-2.762 1.666,-1.311 3.783,-3.07 6.346,-5.277 1.758,-1.512 3.816,-3.315 6.135,-5.366 l 11.114,-102.929 c -1.79,0.988 -3.652,1.608 -4.75,1.971 -4.598,1.518 -11.091,2.87 -19.299,4.016 z M 87.474,84.99 c -48.048502,0 -87,5.372381 -87,12 0,6.62762 38.951498,12 87,12 48.0485,0 87,-5.37238 87,-12 0,-6.627619 -38.9515,-12 -87,-12 z m 34.738,15.507 c 0,1.555 -4.629,2.816 -10.34,2.816 -5.71,0 -10.339,-1.261 -10.339,-2.816 0,-1.556 4.629,-2.817 10.339,-2.817 5.711,0 10.34,1.261 10.34,2.817 z"
             inkscape:connector-curvature="0" />
          <path
             sketch:type="MSShapeGroup"
             id="Straw"
             d="m 103.62676,99.251994 c -0.0513,0.08174 -0.0778,0.165195 -0.0778,0.250006 0,1.007 3.727,1.822 8.323,1.822 4.597,0 8.323,-0.815 8.323,-1.822 L 131.066,55.424 174.29905,9.779239 c 0.0141,-0.013926 0.0278,-0.028337 0.041,-0.043239 0.915,-1.035 -0.942,-4.238 -4.023,-6.985 -3.081,-2.747 -6.408,-3.677 -7.442,-2.631 -0.008,0.007823 -0.0153,0.0157562 -0.0226,0.0237991 L 116.725,48.682 Z"
             inkscape:connector-curvature="0" />
        </g>
      </g>
    </g>
    <g
       id="g887"
       transform="matrix(4.1860465e-6,0,0,4.1860465e-6,0.00496419,270.54163)">
      <path
         id="path873"
         d="m 20.5,20.5 h 215 v 215 h -215 z"
         inkscape:connector-curvature="0"
         style="fill:#f7df1e" />
      <path
         id="path875-0"
         d="m 77.03,200.17 16.455,-9.958 c 3.174,5.628 6.06,10.4 12.987,10.4 6.64,0 10.825,-2.597 10.825,-12.7 v -68.696 h 20.205 v 68.983 c 0,20.926 -12.267,30.45 -30.164,30.45 -16.162,0 -25.545,-8.37 -30.307,-18.472 m 71.445,-2.162 16.45,-9.526 c 4.332,7.072 9.96,12.267 19.918,12.267 8.372,0 13.7,-4.186 13.7,-9.958 0,-6.93 -5.483,-9.383 -14.72,-13.422 l -5.05,-2.167 c -14.577,-6.203 -24.247,-13.996 -24.247,-30.45 0,-15.153 11.545,-26.7 29.586,-26.7 12.845,0 22.08,4.475 28.72,16.165 l -15.732,10.102 c -3.463,-6.205 -7.214,-8.658 -12.986,-8.658 -5.918,0 -9.67,3.75 -9.67,8.657 0,6.062 3.752,8.516 12.4,12.268 l 5.05,2.165 c 17.176,7.36 26.846,14.865 26.846,31.75 0,18.185 -14.288,28.143 -33.482,28.143 -18.762,0 -30.885,-8.948 -36.8,-20.638"
         inkscape:connector-curvature="0" />
    </g>
    <g
       id="g942"
       transform="matrix(1.8084491e-6,0,0,-1.7189219e-6,0.00697917,270.54245)">
      <g
         id="g922"
         clip-path="url(#A)">
        <path
           id="path920"
           d="M 11.52,162 C 11.52,81.677 135.307,16.56 288,16.56 440.693,16.56 564.48,81.677 564.48,162 564.48,242.323 440.693,307.44 288,307.44 135.307,307.44 11.52,242.322 11.52,162"
           inkscape:connector-curvature="0"
           style="fill:url(#B)" />
      </g>
      <g
         id="g926"
         clip-path="url(#C)">
        <path
           id="path924"
           d="m 288,27.358 c 146.73,0 265.68,60.28 265.68,134.64 C 553.68,236.358 434.73,296.64 288,296.64 141.27,296.64 22.32,236.358 22.32,162 22.32,87.642 141.27,27.358 288,27.358"
           inkscape:connector-curvature="0"
           style="fill:#777bb3" />
      </g>
      <g
         id="g940"
         clip-path="url(#D)">
        <path
           id="path928"
           d="m 161.734,145.307 c 12.065,0 21.072,2.225 26.77,6.61 5.638,4.34 9.532,11.862 11.573,22.353 1.903,9.806 1.178,16.652 -2.154,20.348 -3.407,3.774 -10.773,5.688 -21.893,5.688 h -19.28 l -10.69,-55 h 15.673 z M 98.67,77.557 c -0.895,0 -1.745,0.4 -2.314,1.092 -0.569,0.692 -0.8,1.6 -0.63,2.48 l 28.328,145.75 a 3,3 0 0 0 2.945,2.428 h 61.054 c 19.188,0 33.47,-5.2 42.447,-15.486 9.025,-10.332 11.812,-24.772 8.283,-42.922 -1.436,-7.395 -3.906,-14.262 -7.34,-20.41 -3.44,-6.155 -7.984,-11.85 -13.51,-16.93 -6.616,-6.2 -14.104,-10.682 -22.236,-13.323 -8.003,-2.607 -18.28,-3.93 -30.548,-3.93 h -24.722 l -7.06,-36.322 a 3,3 0 0 0 -2.944,-2.428 H 98.67 Z"
           inkscape:connector-curvature="0" />
        <path
           id="path930"
           d="m 159.224,197.307 h 16.808 c 13.42,0 18.083,-2.945 19.667,-4.7 2.628,-2.914 3.124,-9.06 1.435,-17.768 -1.898,-9.75 -5.416,-16.663 -10.458,-20.545 -5.162,-3.974 -13.554,-5.988 -24.94,-5.988 H 149.7 l 9.523,49 z m 28.83,35 H 127 a 6,6 0 0 1 -5.889,-4.855 L 92.783,81.7 a 6,6 0 0 1 1.259,-4.96 c 1.14,-1.384 2.838,-2.184 4.63,-2.184 h 31.75 a 6,6 0 0 1 5.89,4.854 l 6.588,33.895 h 22.25 c 12.582,0 23.174,1.373 31.48,4.077 8.54,2.775 16.4,7.48 23.354,13.984 5.752,5.292 10.5,11.23 14.08,17.657 3.58,6.427 6.17,13.595 7.668,21.302 3.715,19.104 0.697,34.4 -8.97,45.467 -9.572,10.957 -24.614,16.514 -44.706,16.514 m -45.633,-90 h 19.313 c 12.8,0 22.336,2.41 28.6,7.234 6.264,4.824 10.492,12.876 12.688,24.157 2.1,10.832 1.144,18.476 -2.87,22.93 -4.014,4.454 -12.06,6.68 -24.12,6.68 H 154.28 l -11.856,-61 m 45.633,84 c 18.367,0 31.766,-4.82 40.188,-14.462 8.422,-9.642 10.957,-23.098 7.597,-40.374 -1.383,-7.118 -3.722,-13.625 -7.015,-19.52 -3.293,-5.895 -7.602,-11.293 -12.922,-16.184 -6.34,-5.933 -13.383,-10.16 -21.133,-12.68 -7.75,-2.524 -17.62,-3.782 -29.62,-3.782 h -27.196 l -7.53,-38.75 H 98.676 L 127,226.307 h 61.055"
           inkscape:connector-curvature="0"
           style="fill:#ffffff" />
        <path
           id="path932"
           d="m 311.583,116.307 c -0.896,0 -1.745,0.4 -2.314,1.092 -0.569,0.692 -0.802,1.6 -0.63,2.48 l 12.53,64.488 c 1.192,6.134 0.898,10.535 -0.827,12.396 -1.056,1.137 -4.228,3.044 -13.607,3.044 h -22.702 l -15.755,-81.072 a 3,3 0 0 0 -2.945,-2.428 h -31.5 a 3,3 0 0 0 -2.945,3.572 l 28.328,145.75 a 3,3 0 0 0 2.945,2.427 h 31.5 a 3,3 0 0 0 2.945,-3.571 l -6.836,-35.18 h 24.422 c 18.605,0 31.22,-3.28 38.57,-10.028 7.5,-6.885 9.827,-17.89 6.947,-32.72 l -13.18,-67.825 a 3,3 0 0 0 -2.945,-2.428 h -32 z"
           inkscape:connector-curvature="0" />
        <path
           id="path934"
           d="m 293.66,271.056 h -31.5 a 6,6 0 0 1 -5.89,-4.855 l -28.328,-145.75 a 6,6 0 0 1 1.26,-4.961 c 1.14,-1.384 2.838,-2.184 4.63,-2.184 h 31.5 a 6,6 0 0 1 5.89,4.855 l 15.283,78.645 h 20.23 c 9.363,0 11.328,-2 11.407,-2.085 0.568,-0.61 1.315,-3.44 0.082,-9.78 l -12.53,-64.49 a 6,6 0 0 1 1.26,-4.961 c 1.14,-1.384 2.838,-2.184 4.63,-2.184 h 32 a 6,6 0 0 1 5.89,4.855 l 13.18,67.824 c 3.093,15.92 0.447,27.865 -7.86,35.5 -7.928,7.28 -21.208,10.82 -40.6,10.82 H 293.41 l 6.143,31.604 a 6,6 0 0 1 -5.89,7.145 m 0,-6 -7.53,-38.75 h 28.062 c 17.657,0 29.836,-3.082 36.54,-9.238 6.704,-6.156 8.71,-16.142 6.032,-29.938 l -13.18,-67.824 h -32 l 12.53,64.488 c 1.426,7.336 0.902,12.34 -1.574,15.008 -2.476,2.668 -7.746,4.004 -15.805,4.004 H 281.56 l -16.226,-83.5 h -31.5 l 28.328,145.75 h 31.5"
           inkscape:connector-curvature="0"
           style="fill:#ffffff" />
        <path
           id="path936"
           d="m 409.55,145.307 c 12.065,0 21.072,2.225 26.77,6.61 5.638,4.34 9.532,11.86 11.574,22.353 1.903,9.806 1.178,16.652 -2.155,20.348 -3.407,3.774 -10.773,5.688 -21.893,5.688 h -19.28 l -10.69,-55 h 15.673 z m -63.062,-67.75 c -0.895,0 -1.745,0.4 -2.314,1.092 a 3,3 0 0 0 -0.631,2.479 l 28.328,145.75 a 3,3 0 0 0 2.946,2.428 h 61.053 c 19.19,0 33.47,-5.2 42.448,-15.486 9.025,-10.33 11.81,-24.77 8.283,-42.922 -1.438,-7.395 -3.907,-14.262 -7.342,-20.41 -3.44,-6.155 -7.984,-11.85 -13.51,-16.93 -6.616,-6.2 -14.104,-10.682 -22.236,-13.323 -8.003,-2.607 -18.28,-3.93 -30.548,-3.93 H 388.24 l -7.057,-36.322 a 3,3 0 0 0 -2.946,-2.428 h -31.75 z"
           inkscape:connector-curvature="0" />
        <path
           id="path938"
           d="m 407.04,197.307 h 16.808 c 13.42,0 18.083,-2.945 19.667,-4.7 2.63,-2.914 3.125,-9.06 1.435,-17.767 -1.898,-9.75 -5.417,-16.664 -10.458,-20.546 -5.162,-3.974 -13.554,-5.988 -24.94,-5.988 h -12.033 l 9.522,49 z m 28.83,35 h -61.054 a 6,6 0 0 1 -5.889,-4.855 L 340.6,81.7 a 6,6 0 0 1 1.259,-4.96 c 1.14,-1.384 2.838,-2.184 4.63,-2.184 h 31.75 a 6,6 0 0 1 5.89,4.854 l 6.587,33.895 h 22.25 c 12.582,0 23.174,1.373 31.48,4.077 8.54,2.775 16.4,7.48 23.356,13.986 5.752,5.29 10.488,11.23 14.078,17.655 3.59,6.425 6.17,13.595 7.668,21.302 3.715,19.104 0.697,34.403 -8.97,45.467 -9.572,10.957 -24.613,16.514 -44.706,16.514 m -45.632,-90 h 19.312 c 12.8,0 22.336,2.41 28.6,7.234 6.264,4.824 10.492,12.876 12.688,24.157 2.102,10.832 1.145,18.476 -2.87,22.93 -4.015,4.454 -12.06,6.68 -24.12,6.68 h -21.754 l -11.855,-61 m 45.632,84 c 18.367,0 31.766,-4.82 40.188,-14.462 8.422,-9.642 10.957,-23.098 7.597,-40.374 -1.383,-7.118 -3.722,-13.625 -7.015,-19.52 -3.293,-5.895 -7.602,-11.293 -12.922,-16.184 -6.34,-5.933 -13.383,-10.16 -21.133,-12.68 -7.75,-2.524 -17.62,-3.782 -29.62,-3.782 h -27.196 l -7.53,-38.75 h -31.75 l 28.328,145.75 h 61.054"
           inkscape:connector-curvature="0"
           style="fill:#ffffff" />
      </g>
    </g>
    <g
       style="fill-rule:evenodd"
       id="g984"
       transform="matrix(1.6198704e-4,0,0,1.6198704e-4,0.00805,270.54172)">
      <path
         id="path973"
         d="M 2.778,0.39 A 2.38,2.38 0 0 1 4.394,1.02 0.39,0.39 0 0 0 3.969,1.422 C 3.951,1.996 4.655,2.118 4.276,3.272 L 3.962,4.226 3.108,1.711 C 3.095,1.671 3.11,1.651 3.158,1.651 h 0.24 c 0.013,0 0.023,-0.01 0.023,-0.024 V 1.48 C 3.421,1.467 3.411,1.456 3.398,1.456 H 2.036 C 2.023,1.455 2.013,1.466 2.013,1.48 v 0.143 c 0,0.013 0.01,0.024 0.023,0.024 h 0.243 c 0.054,0 0.07,0.018 0.082,0.053 L 2.711,2.66 2.183,4.254 1.316,1.7 C 1.306,1.668 1.318,1.65 1.349,1.65 h 0.277 c 0.013,0 0.023,-0.01 0.023,-0.024 V 1.483 C 1.649,1.47 1.639,1.459 1.626,1.459 L 0.773,1.479 C 1.2,0.823 1.937,0.39 2.777,0.39 Z m 2.1,1.25 C 5.062,1.978 5.166,2.366 5.166,2.777 A 2.39,2.39 0 0 1 3.924,4.873 l 0.745,-2.1 C 4.784,2.446 4.892,2.005 4.879,1.65 Z m -1.3,3.388 A 2.38,2.38 0 0 1 2.778,5.165 2.39,2.39 0 0 1 2.083,5.062 L 2.819,2.952 3.577,5.026 Z M 1.756,4.936 A 2.39,2.39 0 0 1 0.389,2.778 2.38,2.38 0 0 1 0.604,1.788 l 1.152,3.15 z M 2.778,0.165 C 4.22,0.165 5.4,1.335 5.4,2.778 5.4,4.221 4.22,5.4 2.778,5.4 1.336,5.4 0.165,4.22 0.165,2.778 0.165,1.336 1.335,0.165 2.778,0.165 Z M 2.778,0 A 2.78,2.78 0 0 1 5.556,2.778 2.78,2.78 0 0 1 2.778,5.556 2.78,2.78 0 0 1 0,2.778 2.78,2.78 0 0 1 2.778,0 Z"
         inkscape:connector-curvature="0"
         style="fill:#464342" />
    </g>
    <g
       id="g990"
       transform="matrix(3.90625e-6,0,0,3.937383e-6,0.009,270.54187)">
      <path
         id="path986"
         d="M 23.758664,0 H 232.13744 C 245.32464,0 256,10.675357 256,23.862562 v 79.541868 c 0,13.18721 -10.67536,23.86257 -23.86256,23.86257 h -74.7275 L 167.66666,152.38548 122.55804,127.267 H 23.863325 C 10.67612,127.267 7.6303846e-4,116.59164 7.6303846e-4,103.40443 V 23.862562 C -0.10389732,10.780017 10.571459,0 23.758664,0 Z"
         inkscape:connector-curvature="0"
         style="fill:#9b5c8f" />
      <path
         id="path988"
         d="m 14.578199,21.749593 c 1.456911,-1.977235 3.642277,-3.017886 6.556098,-3.226016 5.307317,-0.41626 8.325203,2.081301 9.053658,7.492683 3.226017,21.749594 6.764228,40.169106 10.51057,55.258537 L 63.488768,37.879675 c 2.081301,-3.954472 4.682927,-6.035773 7.804878,-6.243903 4.578862,-0.312195 7.388618,2.601626 8.533334,8.741464 2.601626,13.84065 5.931707,25.6 9.886179,35.590244 2.705691,-26.432521 7.284553,-45.476423 13.736581,-57.235773 1.56098,-2.913821 3.85041,-4.370731 6.8683,-4.578861 2.39349,-0.208131 4.57886,0.520325 6.55609,2.0813 1.97724,1.560976 3.01789,3.538212 3.22602,5.931708 0.10407,1.87317 -0.20813,3.434146 -1.04065,4.995122 -4.05854,7.492682 -7.38862,20.084552 -10.09431,37.567479 -2.60163,16.962602 -3.53821,30.178862 -2.91382,39.648785 0.20813,2.60162 -0.20813,4.89105 -1.24878,6.86829 -1.24878,2.28943 -3.12195,3.53821 -5.515448,3.74634 C 96.581451,115.2 93.771695,113.95122 91.066004,111.14146 81.387956,101.25529 73.687142,86.478049 68.06763,66.809756 61.303403,80.130081 56.308281,90.120325 53.082264,96.780488 46.942427,108.53984 41.739175,114.57561 37.368443,114.88781 34.558687,115.09593 32.165191,112.70244 30.08389,107.70732 24.776573,94.074797 19.052996,67.746341 12.913159,28.721951 c -0.41626,-2.705691 0.20813,-5.099187 1.66504,-6.972358 z M 238.21397,38.087805 c -3.74634,-6.556098 -9.26179,-10.510569 -16.65041,-12.071545 -1.97723,-0.41626 -3.8504,-0.62439 -5.61951,-0.62439 -9.99024,0 -18.10731,5.203252 -24.45528,15.609756 -5.41138,8.845529 -8.11708,18.627642 -8.11708,29.346341 0,8.013009 1.66505,14.881301 4.99513,20.604878 3.74634,6.556098 9.26179,10.510565 16.6504,12.071545 1.97724,0.41626 3.85041,0.62439 5.61952,0.62439 10.0943,0 18.21138,-5.203252 24.45528,-15.609756 5.41138,-8.949593 8.11707,-18.731707 8.11707,-29.450406 0.10407,-8.117073 -1.66504,-14.881301 -4.99512,-20.500813 z m -13.11219,28.826016 c -1.45691,6.868293 -4.05854,11.96748 -7.90895,15.401626 -3.01788,2.705691 -5.82764,3.850407 -8.42927,3.330081 -2.49756,-0.520325 -4.57886,-2.705691 -6.13983,-6.764227 -1.24878,-3.226016 -1.87317,-6.452033 -1.87317,-9.469919 0,-2.601626 0.20813,-5.203252 0.72845,-7.596748 0.93659,-4.266667 2.70569,-8.429268 5.51545,-12.38374 3.43415,-5.099187 7.07642,-7.180488 10.82276,-6.452032 2.49756,0.520325 4.57887,2.705691 6.13984,6.764227 1.24878,3.226017 1.87317,6.452033 1.87317,9.469919 0,2.705691 -0.20813,5.307317 -0.72845,7.700813 z M 173.06926,38.087805 C 169.32291,31.531707 163.7034,27.577236 156.41885,26.01626 154.44161,25.6 152.56844,25.39187 150.79934,25.39187 c -9.99025,0 -18.10732,5.203252 -24.45529,15.609756 -5.41138,8.845529 -8.11707,18.627642 -8.11707,29.346341 0,8.013009 1.66504,14.881301 4.99512,20.604878 3.74634,6.556098 9.26179,10.510565 16.65041,12.071545 1.97723,0.41626 3.8504,0.62439 5.61951,0.62439 10.09431,0 18.21138,-5.203252 24.45528,-15.609756 5.41139,-8.949593 8.11708,-18.731707 8.11708,-29.450406 0,-8.117073 -1.66504,-14.881301 -4.99512,-20.500813 z M 159.853,66.913821 c -1.45691,6.868293 -4.05854,11.96748 -7.90895,15.401626 -3.01788,2.705691 -5.82764,3.850407 -8.42927,3.330081 -2.49756,-0.520325 -4.57886,-2.705691 -6.13983,-6.764227 -1.24878,-3.226016 -1.87317,-6.452033 -1.87317,-9.469919 0,-2.601626 0.20813,-5.203252 0.72845,-7.596748 0.93659,-4.266667 2.70569,-8.429268 5.51545,-12.38374 3.43414,-5.099187 7.07642,-7.180488 10.82276,-6.452032 2.49756,0.520325 4.57886,2.705691 6.13984,6.764227 1.24878,3.226017 1.87317,6.452033 1.87317,9.469919 0.10407,2.705691 -0.20813,5.307317 -0.72845,7.700813 z"
         inkscape:connector-curvature="0"
         style="fill:#ffffff" />
    </g>
    <g
       id="g1082"
       transform="matrix(4.2056075e-6,0,0,4.2768957e-6,0.00996168,270.54162)">
      <path
         style="fill:url(#A-2)"
         id="path1043"
         d="M 21,22.783 H 235 V 233.216 H 21 Z"
         inkscape:connector-curvature="0" />
      <path
         style="fill:url(#B-3)"
         id="path1045"
         d="M 38.02,39.517 H 217.98 V 216.482 H 38.02 Z"
         inkscape:connector-curvature="0" />
      <path
         style="fill:url(#C-5)"
         id="path1047"
         d="m 72.715,82.093 24.67,-0.356 c 11.254,0 19.28,2.648 24.667,7.3 5.15,4.398 8.622,11.893 8.622,20.426 0,8.533 -2.635,15.515 -7.426,20.425 -6.227,6.335 -13.483,10.085 -25.864,10.604 -3.42,0.143 -6.586,0.178 -6.586,0.178 v 27.737 H 72.715 Z M 90.797,125.3 c 1.964,0.193 3.196,0.1 6.107,0.066 9.7,-0.117 15.686,-6.015 15.686,-14.935 0,-8.013 -4.936,-14.593 -14.248,-14.934 -3.7,-0.135 -7.545,0 -7.545,0 z"
         inkscape:connector-curvature="0" />
      <path
         style="fill:url(#D-4)"
         id="path1049"
         d="m 137.574,149.083 c 3.645,2.236 12.245,5.585 18.107,5.585 6,0 8.463,-2.1 8.463,-5.4 0,-3.296 -1.953,-6.757 -9.377,-9.26 -13.153,-4.48 -18.232,-9.84 -18.1,-17.344 0,-12.12 10.156,-21.2 25.914,-21.2 7.423,0 13.352,2.428 17.257,4.403 v 14.546 c -2.867,-1.582 -11.137,-5.115 -16.605,-5.115 -4.82,0 -7.555,1.976 -7.555,5.266 0,3.03 2.476,4.6 10.3,7.38 12.1,4.213 17.188,10.402 17.317,19.886 0,11.988 -9.24,21.52 -27.607,20.94 -6.302,-0.197 -13.285,-2.688 -18.103,-5.32 v -14.357 z"
         inkscape:connector-curvature="0" />
    </g>
    <g
       id="g1811"
       transform="matrix(9.1837417e-7,0,0,9.5718652e-7,0.00604082,270.54169)"
       style="fill:#0769ad;fill-opacity:1">
      <g
         id="g1809"
         transform="matrix(0.1,0,0,-0.1,0,618)"
         style="fill:#0769ad;fill-opacity:1">
        <path
           id="path1803"
           d="M 5796.2,5694.1 C 5559.9,5368.9 5443.3,5105 5395.8,4792 c -55.2,-372.8 6.1,-774.7 178,-1142.9 C 5895.9,2952.6 6617,2388 7361,2248.4 c 204,-36.8 734.9,-36.8 912.8,3.1 360.5,78.2 647.4,225.5 905.1,463.3 110.5,102.8 306.8,359 382,500.1 l 52.1,96.6 -89,-96.6 C 9151.2,2806.8 8585.1,2659.5 7874.8,2780.7 7324,2875.8 6868.4,3109 6480.3,3491 5809.9,4155.3 5582.8,5065 5905,5801.4 c 20,43 33.8,79.8 30.7,79.8 -1.4,0 -65.9,-84.3 -139.5,-187.1 z"
           inkscape:connector-curvature="0"
           style="fill:#0769ad;fill-opacity:1" />
        <path
           id="path1805"
           d="m 3616.2,5037.5 c -276.1,-391.2 -383.5,-573.8 -481.7,-823.8 -210.2,-532.3 -240.9,-1198.1 -84.4,-1816.4 99.7,-392.7 262.3,-747.1 518.5,-1133.7 164.2,-247 231.7,-328.3 448,-544.6 495.5,-497.1 1032.5,-831.5 1676.8,-1043.2 521.6,-170.4 1330.1,-191.9 1974.4,-53.8 879.1,190.2 1607.8,728.7 2054.2,1517.2 73.6,127.3 177.9,357.5 177.9,388.1 0,9.2 -35.3,-29.2 -76.7,-84.4 C 9583.9,1126.9 9162,804.7 8769.2,634.4 8319.7,441.1 7884,361.3 7362.4,378.2 5480,435 3798.6,1927.7 3579.2,3733.3 c -62.9,518.5 41.4,1142.9 262.3,1584.8 24.6,47.6 42.9,87.5 39.9,87.5 -2.9,0.1 -121,-165.6 -265.2,-368.1 z"
           inkscape:connector-curvature="0"
           style="fill:#0769ad;fill-opacity:1" />
        <path
           id="path1807"
           d="M 1054.2,4129.3 C 675.3,3649.1 601.6,3543.3 472.8,3280.9 202.8,2731.7 78.5,2136.4 103,1509 c 75.2,-1960.7 1402.2,-3803.2 3346,-4643.9 501.7,-217.9 871.4,-309.9 1452.8,-366.7 360.5,-33.8 1014,-23 1319.4,23 839.2,124.3 1546.4,421.9 2164.6,909.7 494,389.7 1026.3,1060.1 1245.7,1569.4 l 39.9,92.1 -73.6,-84.4 c -449.5,-520.1 -960.4,-865.3 -1612.4,-1090.8 -495.5,-170.3 -961.9,-243.9 -1552.5,-243.9 -635.1,0 -1133.7,72.1 -1643.1,239.3 -695,227.1 -1340.8,586 -1906.9,1058.5 C 2652.8,-835.2 2280,-456.2 2102,-232.3 1466.9,562.4 1098.7,1444.5 1000.5,2411 c -23,224 -9.2,770.1 24.5,984.9 53.7,346.7 162.6,714.9 291.5,992.6 36.8,78.2 64.4,142.7 61.4,142.7 -3,0 -148.8,-181 -323.7,-401.9 z"
           inkscape:connector-curvature="0"
           style="fill:#0769ad;fill-opacity:1" />
      </g>
    </g>
    <g
       id="g3112"
       transform="matrix(3.9077121e-6,0,0,3.9077121e-6,0.01099992,270.54191)">
      <g
         id="g3110"
         style="stroke-width:0.09375">
        <path
           id="path3098"
           d="m 63.181665,4.1997587 c 0.926417,-1.5749095 2.13076,-3.0880579 3.860072,-3.82919175 0.710253,-0.12352232 1.420507,-0.0617612 2.13076,-0.0617612 h 34.956813 c -1.01906,0.86465625 -2.00724,1.76019305 -2.68661,2.93365505 -1.791072,2.933655 -2.995414,6.2069964 -4.107115,9.4803382 -3.149819,9.881785 -5.34234,20.041495 -7.4731,30.201206 -0.957298,4.601206 -1.883715,9.233293 -2.748372,13.834499 -2.655729,15.069723 -5.404101,30.108565 -8.831845,45.023886 -1.636671,6.88637 -3.304222,13.77274 -5.83643,20.41206 -1.173462,2.74837 -2.316043,5.68203 -4.570325,7.72015 -0.52497,0.4632 -1.04994,1.04994 -1.791074,0.95729 H 35.20386 c -2.099879,-0.0618 -4.168878,0.12353 -6.268758,-0.0926 1.389627,-1.08082 2.62485,-2.3778 3.427745,-3.92183 2.316043,-4.41592 3.76743,-9.20241 5.157056,-13.95802 2.161641,-7.65839 3.890954,-15.409412 5.527624,-23.160437 1.019059,-5.095296 2.223402,-10.159711 2.964536,-15.285887 0.833775,-5.712907 2.099879,-11.364053 3.118938,-17.04608 1.60579,-8.368637 3.304222,-16.737273 5.187938,-25.044149 1.513148,-6.484922 3.057177,-12.938963 5.126176,-19.269481 1.019059,-3.057178 2.130759,-6.0834746 3.73655,-8.8936073 z"
           inkscape:connector-curvature="0"
           style="fill:#eb7077;stroke:#eb7077" />
        <path
           id="path3100"
           d="m 104.12931,0.30880579 c 0.89554,0 1.79108,-0.0308806 2.68661,0 1.97636,1.04993971 3.64391,2.71749091 4.57033,4.78648971 1.23522,2.346924 2.25428,4.8173704 3.1807,7.3495775 3.08806,9.542099 5.18794,19.362123 7.28782,29.151267 1.79107,8.770084 3.4895,17.571049 5.09529,26.402895 0.12352,0.463209 -0.0309,1.111701 0.58673,1.235223 -2.2234,11.611098 -4.41592,23.253076 -7.19517,34.771532 -1.51315,6.207 -3.11894,12.38311 -5.4041,18.37394 -1.23523,2.99542 -2.50133,6.26876 -5.12618,8.39952 -1.66755,0.37057 -2.87189,-0.89554 -3.89095,-2.03812 -1.7602,-2.25428 -2.84102,-4.91001 -3.89096,-7.56574 -3.489502,-9.51122 -5.620262,-19.42388 -7.781903,-29.305667 -1.636671,-7.689265 -3.088058,-15.44029 -4.601206,-23.160435 -0.679373,-3.921833 -1.60579,-7.781906 -2.13076,-11.703739 -0.09264,-0.06176 -0.308806,-0.185284 -0.401448,-0.247045 0.864657,-4.601206 1.791074,-9.233293 2.748372,-13.834499 2.13076,-10.159711 4.323281,-20.319421 7.4731,-30.201206 1.111701,-3.2733418 2.316043,-6.5466832 4.107115,-9.4803382 0.67937,-1.173462 1.66755,-2.0689988 2.68661,-2.93365501 z"
           inkscape:connector-curvature="0"
           style="fill:#f6a2ad;stroke:#f6a2ad" />
        <path
           id="path3102"
           d="m 142.76092,5.651146 c 1.1117,-2.13076 2.47044,-4.5085646 4.87913,-5.31145963 12.25959,-0.0617612 24.51918,-0.0308806 36.77877,-0.0308806 -1.14258,1.14258143 -2.34693,2.28516283 -3.11894,3.73655003 -2.37781,4.26152 -3.76743,8.9862482 -5.18794,13.6492162 -3.64391,12.846321 -6.20699,25.970567 -8.64656,39.094813 -2.25428,12.938962 -4.66297,25.877925 -7.41134,38.755126 -1.42051,6.484919 -2.90277,12.938959 -4.78649,19.331239 -1.20434,3.95272 -2.47045,7.93631 -4.4468,11.6111 -0.9573,1.66755 -2.069,3.48951 -3.89095,4.35416 -11.70375,0.0926 -23.43837,0 -35.1421,0.0309 -0.6485,0 -1.32787,0 -1.97636,-0.0926 2.62485,-2.13076 3.89095,-5.4041 5.12618,-8.39952 2.28516,-5.99083 3.89095,-12.16694 5.4041,-18.37394 2.77925,-11.518456 4.97177,-23.160434 7.19517,-34.771532 2.68661,-14.977081 5.49674,-29.954162 9.07889,-44.745959 1.66755,-6.39228 3.27334,-12.877201 6.14524,-18.837153 z"
           inkscape:connector-curvature="0"
           style="fill:#eb7077;stroke:#eb7077" />
        <path
           id="path3104"
           d="m 184.41882,0.30880579 c 0.98818,0 2.00723,-0.0308806 2.99541,0 1.60579,0.83377561 2.74838,2.25428231 3.76743,3.70566951 1.66756,2.6557298 2.7175,5.6511459 3.79832,8.5848007 2.56308,7.874548 4.47768,15.96526 6.23787,24.055971 2.34693,10.900845 4.38504,21.86345 6.39228,32.826056 0.49409,2.624849 0.98818,5.280579 1.29699,7.936309 0.12352,0.123522 0.37056,0.370566 0.46321,0.463208 -1.11171,1.544029 -1.54403,3.396864 -2.16165,5.157057 -1.94547,6.268757 -3.21158,12.753679 -4.2924,19.207723 -0.83377,5.06441 -1.97635,10.09795 -3.55126,14.97708 -1.17346,3.61303 -2.59397,7.19517 -4.9409,10.22147 -1.1117,1.45139 -2.62484,2.56309 -4.2924,3.30422 -2.56308,0.27793 -4.07623,-2.19252 -5.31146,-4.01447 -2.56308,-4.47769 -3.95271,-9.48034 -5.43498,-14.35947 -4.87913,-18.065142 -8.05983,-36.562609 -11.48757,-54.936553 -0.0309,-0.277925 -0.18529,-0.52497 -0.43233,-0.648492 2.43957,-13.124246 5.00265,-26.248492 8.64656,-39.094813 1.42051,-4.662968 2.81013,-9.3876962 5.18794,-13.6492162 0.77201,-1.4513872 1.97636,-2.5939686 3.11894,-3.73655001 z"
           inkscape:connector-curvature="0"
           style="fill:#f6a2ad;stroke:#f6a2ad" />
        <path
           id="path3106"
           d="M 0.03088058,70.562123 C 0.83377563,70.500362 1.6366707,70.37684 2.4704463,70.37684 H 36.130277 c 1.420507,0.185283 2.902775,0.06176 4.26152,0.679372 1.976357,0.802895 3.73655,2.161641 5.033535,3.860073 0.154403,-0.09264 0.432328,-0.339687 0.586731,-0.463209 -0.741134,5.126176 -1.945477,10.190591 -2.964536,15.285887 -1.63667,7.751025 -3.365983,15.502047 -5.527624,23.160437 -1.389626,4.75561 -2.841013,9.5421 -5.157056,13.95802 -0.802895,1.54403 -2.038118,2.84101 -3.427745,3.92183 -0.524969,0.0926 -0.926417,-0.27792 -1.358745,-0.55585 -1.451387,-0.92642 -2.285163,-2.53221 -3.1807,-3.98359 C 20.165018,116.60507 19.701809,105.95127 17.07696,95.884198 15.749095,90.850663 14.112425,85.84801 11.703739,81.215923 10.221472,78.436671 8.3995175,75.780941 6.0217129,73.650181 4.2615199,72.229674 2.2234017,71.087093 0.03088058,70.562123 Z"
           inkscape:connector-curvature="0"
           style="fill:#f6a2ad;stroke:#f6a2ad" />
        <path
           id="path3108"
           d="m 212.08782,73.773703 c 1.94547,-2.192521 4.84825,-3.582147 7.7819,-3.458625 h 25.32208 c 3.52038,0.06176 7.07165,-0.123522 10.59204,0.09264 -1.04994,0.710254 -2.31605,0.988179 -3.42775,1.57491 -3.86007,1.760193 -7.16429,4.693848 -9.26417,8.368637 -3.36599,5.86731 -4.53945,12.599276 -5.52763,19.20772 -0.98817,6.484925 -0.95729,13.186005 -3.05717,19.485645 -1.42051,4.41593 -3.58215,8.86273 -7.3187,11.7655 -11.6111,0.12352 -23.2222,0.0309 -34.80241,0.0618 -0.77202,0 -1.51315,0.0309 -2.25429,-0.12352 1.66756,-0.74113 3.1807,-1.85283 4.2924,-3.30422 2.34693,-3.0263 3.76744,-6.60844 4.9409,-10.22147 1.57491,-4.87913 2.71749,-9.91267 3.55126,-14.97708 1.08082,-6.454046 2.34693,-12.938968 4.2924,-19.207725 0.61762,-1.760193 1.04994,-3.613028 2.16165,-5.157057 0.92641,-1.358745 1.54402,-2.933655 2.71749,-4.107117 z"
           inkscape:connector-curvature="0"
           style="fill:#eb7077;stroke:#eb7077" />
      </g>
    </g>
    <g
       id="g927"
       transform="matrix(3.9170702e-6,0,0,4.1785405e-6,0.01204823,270.54177)"
       style="fill:#cd6799">
      <path
         id="path925"
         d="m 220.28124,110.51366 c -8.90638,0.0466 -16.647,2.19162 -23.1286,5.36248 -2.37814,-4.70966 -4.75628,-8.90638 -5.17596,-11.98397 -0.4663,-3.59053 -1.02586,-5.782152 -0.4663,-10.072134 0.55956,-4.289981 3.0776,-10.398542 3.03097,-10.864845 -0.0466,-0.466302 -0.55957,-2.657923 -5.68889,-2.704554 -5.12933,-0.04663 -9.5592,0.979235 -10.07213,2.331512 -0.51294,1.352277 -1.49217,4.429873 -2.14499,7.600729 -0.88598,4.663024 -10.25866,21.310022 -15.62113,30.029872 -1.72532,-3.40401 -3.21749,-6.38834 -3.5439,-8.76648 -0.4663,-3.59053 -1.02587,-5.78215 -0.4663,-10.07214 0.55956,-4.289977 3.07759,-10.398538 3.03096,-10.86484 -0.0466,-0.466303 -0.55956,-2.657924 -5.68889,-2.704554 -5.12932,-0.04663 -9.5592,0.979235 -10.07213,2.331512 -0.51293,1.352277 -1.07249,4.523133 -2.14499,7.600728 -1.07249,3.077594 -13.52277,30.869214 -16.78688,38.050274 -1.67869,3.68379 -3.12423,6.62149 -4.15009,8.62659 v 0 c 0,0 -0.0466,0.13989 -0.18653,0.37304 -0.88597,1.72532 -1.3989,2.65793 -1.3989,2.65793 0,0 0,0 0,0.0466 -0.69946,1.25901 -1.44554,2.42477 -1.81858,2.42477 -0.27978,0 -0.79272,-3.35738 0.0933,-7.92714 1.86521,-9.65246 6.29508,-24.66739 6.24845,-25.18033 0,-0.27978 0.83935,-2.89107 -2.89107,-4.24335 -3.63716,-1.35227 -4.94281,0.88598 -5.26922,0.88598 -0.32641,0 -0.55956,0.79271 -0.55956,0.79271 0,0 4.05683,-16.880146 -7.74062,-16.880146 -7.36758,0 -17.532972,8.067036 -22.569038,15.341346 -3.170856,1.72532 -9.93224,5.40911 -17.159927,9.37268 -2.751184,1.5388 -5.595628,3.0776 -8.253552,4.52313 -0.186521,-0.18652 -0.373042,-0.41967 -0.559563,-0.60619 C 44.858288,110.74681 18.465574,99.975228 19.584699,79.504554 20.004372,72.043716 22.569035,52.459016 70.271767,28.677596 109.53443,9.3260474 140.77668,14.688525 146.18579,26.579235 c 7.74062,16.973406 -16.74025,48.495446 -57.308559,53.065209 -15.481238,1.725319 -23.5949,-4.243351 -25.64663,-6.481603 -2.144991,-2.331511 -2.471403,-2.471402 -3.264117,-2.0051 -1.305646,0.699454 -0.466302,2.797815 0,4.010201 1.212387,3.170856 6.201822,8.766484 14.641895,11.517668 7.460838,2.424772 25.600001,3.777049 47.562841,-4.709654 24.57413,-9.512568 43.78579,-35.951912 38.14353,-58.101275 C 154.67249,1.3989071 117.36831,-6.0153005 82.069217,6.5282331 61.08561,13.989071 38.330055,25.739891 21.962841,41.034608 2.5180328,59.220401 -0.55956284,75.028051 0.69945355,81.649545 5.2225865,105.15118 37.630601,120.4459 50.593807,131.77705 c -0.652823,0.37304 -1.259017,0.69945 -1.771949,0.97923 -6.481603,3.21749 -31.195629,16.13407 -37.35082,29.79673 -6.9945353,15.48123 1.119126,26.57923 6.481603,28.0714 16.646995,4.61639 33.760292,-3.68379 42.946448,-17.39308 9.186157,-13.70929 8.067031,-31.52204 3.82368,-39.68233 -0.04663,-0.0933 -0.09326,-0.18652 -0.186521,-0.27978 1.678688,-0.97924 3.404007,-2.0051 5.082695,-2.98434 3.310747,-1.95847 6.574864,-3.77705 9.372678,-5.26921 -1.585428,4.33661 -2.751184,9.51256 -3.310747,16.9734 -0.699453,8.76649 2.891075,20.14426 7.600729,24.62077 2.098361,1.95847 4.569763,2.0051 6.155191,2.0051 5.502368,0 7.973771,-4.56977 10.724956,-9.97887 3.35738,-6.6215 6.38834,-14.31549 6.38834,-14.31549 0,0 -3.77705,20.79709 6.4816,20.79709 3.73042,0 7.50747,-4.84955 9.18616,-7.32095 v 0.0466 c 0,0 0.0933,-0.13989 0.27978,-0.4663 0.37304,-0.60619 0.6062,-0.97924 0.6062,-0.97924 v -0.0933 c 1.49216,-2.61129 4.84954,-8.53333 9.83897,-18.37231 6.43498,-12.68342 12.6368,-28.5377 12.6368,-28.5377 0,0 0.55956,3.8703 2.4714,10.30528 1.11913,3.77705 3.45064,7.92714 5.31585,11.93734 -1.49217,2.09836 -2.42477,3.26411 -2.42477,3.26411 0,0 0,0 0.0466,0.0466 -1.21239,1.58543 -2.51804,3.31075 -3.96357,4.98944 -5.0827,6.06193 -11.14463,13.00984 -11.98397,15.01494 -0.97924,2.37814 -0.74609,4.10346 1.11912,5.50236 1.35228,1.02587 3.77705,1.16576 6.24845,1.02587 4.56977,-0.32641 7.78725,-1.44554 9.37268,-2.14499 2.4714,-0.88598 5.36248,-2.23825 8.06703,-4.24335 4.98944,-3.68379 8.0204,-8.95301 7.74062,-15.90091 -0.13989,-3.82368 -1.39891,-7.64736 -2.9377,-11.23789 0.4663,-0.65282 0.88597,-1.30565 1.35227,-1.95847 7.88051,-11.51767 13.98907,-24.15446 13.98907,-24.15446 0,0 0.55957,3.87031 2.47141,10.30528 0.9326,3.26412 2.84444,6.80801 4.52313,10.25865 -7.41421,6.0153 -11.98397,13.00984 -13.61603,17.5796 -2.93771,8.4867 -0.65282,12.31038 3.68379,13.19636 1.95847,0.41967 4.75628,-0.51294 6.80801,-1.39891 2.6113,-0.83934 5.68889,-2.28488 8.6266,-4.42987 4.98943,-3.68379 9.79235,-8.81312 9.51257,-15.76102 -0.1399,-3.17086 -0.97924,-6.29508 -2.145,-9.32605 6.29509,-2.61129 14.40875,-4.05683 24.76066,-2.84444 22.19599,2.61129 26.57924,16.46047 25.73989,22.28925 -0.83934,5.82878 -5.50237,8.99963 -7.04116,9.97887 -1.5388,0.97923 -2.05174,1.30565 -1.91184,2.0051 0.18652,1.02587 0.9326,0.97923 2.23825,0.79271 1.81858,-0.32641 11.65756,-4.70965 12.07723,-15.4346 0.69945,-13.70929 -12.35701,-28.6776 -35.43898,-28.53771 z M 49.055009,168.24189 c -7.367577,8.0204 -17.626229,11.05137 -22.056102,8.48671 -4.756284,-2.75119 -2.891075,-14.59527 6.155191,-23.08197 5.502368,-5.17596 12.590164,-9.97887 17.299818,-12.91658 1.072496,-0.65282 2.657924,-1.58542 4.569763,-2.75118 0.326412,-0.18652 0.512933,-0.27978 0.512933,-0.27978 v 0 c 0.373042,-0.23315 0.746084,-0.4663 1.119126,-0.69945 3.310746,12.12386 0.13989,22.80218 -7.600729,31.24225 z m 53.624771,-36.46484 c -2.56466,6.24845 -7.927139,22.24262 -11.191255,21.35665 -2.797815,-0.74609 -4.523133,-12.86995 -0.559563,-24.85392 2.0051,-6.0153 6.248451,-13.19636 8.719854,-15.99417 4.010204,-4.4765 8.440074,-5.96867 9.512564,-4.15009 1.35228,2.37814 -4.89617,19.72459 -6.4816,23.64153 z m 44.2521,21.17013 c -1.0725,0.55956 -2.09837,0.9326 -2.56467,0.65282 -0.32641,-0.18652 0.4663,-0.93261 0.4663,-0.93261 0,0 5.549,-5.96867 7.74062,-8.67322 1.25902,-1.58543 2.75119,-3.45064 4.33662,-5.549 v 0.6062 c 0,7.13442 -6.90128,11.93734 -9.97887,13.89581 z m 34.13333,-7.78725 c -0.79272,-0.55957 -0.65282,-2.42478 2.0051,-8.25356 1.02586,-2.28488 3.45064,-6.10856 7.60073,-9.79234 0.4663,1.49216 0.79271,2.9377 0.74608,4.28998 -0.0466,8.99963 -6.4816,12.35701 -10.35191,13.75592 z"
         inkscape:connector-curvature="0" />
    </g>
  </g>
</svg>
