<svg xmlns="http://www.w3.org/2000/svg" xmlns:xlink="http://www.w3.org/1999/xlink" width="60" height="30" viewBox="0 0 15.875 7.938"><g transform="scale(.015502999536693096)"><use xlink:href="#A"/><use xlink:href="#B"/><use xlink:href="#C"/><use xlink:href="#D"/><use xlink:href="#E"/><use xlink:href="#F"/><use xlink:href="#G"/><use xlink:href="#H"/><use xlink:href="#I"/><use xlink:href="#J"/><use xlink:href="#K"/><use xlink:href="#L"/><use xlink:href="#M"/><use xlink:href="#N"/></g><path d="M11.9 7.937a3.921 3.92 0 0 1-2.493-.893 3.95 3.95 0 0 1-1.438-2.678c-.098-.96.144-1.93.712-2.708C9.68.278 11.548 0 11.548 0L11.2.46a2.771 2.77 0 0 0-.475 1.854 2.761 2.76 0 0 0 2.736 2.482c.093 0 .187-.005.282-.015a2.751 2.75 0 0 0 1.712-.842l.42-.444-.022.613a3.981 3.98 0 0 1-1.056 2.56 3.951 3.95 0 0 1-2.498 1.249 4.001 4 0 0 1-.41.021zm0 0"/><defs><path id="A" d="M50.087 239.304h-33.4A16.7 16.7 0 0 0 0 256a16.7 16.7 0 0 0 16.696 16.696h33.4A16.7 16.7 0 0 0 66.783 256a16.7 16.7 0 0 0-16.696-16.696z"/><path id="B" d="M495.304 239.304h-33.4A16.7 16.7 0 0 0 445.217 256a16.7 16.7 0 0 0 16.696 16.696h33.4A16.7 16.7 0 0 0 512 256a16.7 16.7 0 0 0-16.696-16.696z"/><path id="C" d="M256 445.217a16.7 16.7 0 0 0-16.696 16.696v33.4A16.7 16.7 0 0 0 256 512a16.7 16.7 0 0 0 16.696-16.696v-33.4A16.7 16.7 0 0 0 256 445.217z"/><path id="D" d="M256 0a16.7 16.7 0 0 0-16.696 16.696v33.4A16.7 16.7 0 0 0 256 66.783a16.7 16.7 0 0 0 16.696-16.696v-33.4A16.7 16.7 0 0 0 256 0z"/><path id="E" d="M390.1 454.895l-16.696-28.917c-4.6-7.985-14.82-10.722-22.806-6.1a16.7 16.7 0 0 0-6.111 22.806l16.696 28.917a16.7 16.7 0 0 0 22.807 6.11 16.7 16.7 0 0 0 6.111-22.806z"/><path id="F" d="M167.502 69.326L150.806 40.4c-4.6-7.985-14.82-10.722-22.806-6.1a16.7 16.7 0 0 0-6.111 22.806l16.696 28.917c4.612 8 14.826 10.72 22.806 6.1a16.7 16.7 0 0 0 6.111-22.806z"/><path id="G" d="M471.6 361.194l-28.917-16.696c-7.986-4.612-18.196-1.875-22.806 6.1a16.7 16.7 0 0 0 6.111 22.806l28.917 16.696c7.98 4.6 18.194 1.878 22.806-6.1a16.7 16.7 0 0 0-6.111-22.806z"/><path id="H" d="M86.022 138.585L57.105 121.9c-7.986-4.612-18.197-1.874-22.806 6.1a16.7 16.7 0 0 0 6.111 22.806l28.917 16.696c7.98 4.6 18.194 1.878 22.806-6.1a16.7 16.7 0 0 0-6.111-22.806z"/><path id="I" d="M477.702 128c-4.6-7.985-14.82-10.722-22.806-6.1l-28.917 16.696a16.7 16.7 0 0 0-6.111 22.806 16.7 16.7 0 0 0 22.806 6.111l28.917-16.696A16.7 16.7 0 0 0 477.702 128z"/><path id="J" d="M92.132 350.6a16.7 16.7 0 0 0-22.806-6.111L40.4 361.194A16.7 16.7 0 0 0 34.298 384a16.7 16.7 0 0 0 22.806 6.111l28.917-16.696c7.986-4.6 10.72-14.82 6.1-22.806z"/><path id="K" d="M384 34.298c-7.986-4.612-18.196-1.874-22.806 6.1l-16.696 28.917a16.7 16.7 0 0 0 6.111 22.806c7.98 4.6 18.194 1.88 22.806-6.1l16.696-28.917A16.7 16.7 0 0 0 384 34.298z"/><path id="L" d="M161.4 419.868c-7.985-4.612-18.197-1.875-22.806 6.1l-16.696 28.917A16.7 16.7 0 0 0 128 477.702c7.98 4.6 18.194 1.878 22.806-6.1l16.696-28.917a16.7 16.7 0 0 0-6.111-22.806z"/><path id="M" d="M256 100.174c-85.922 0-155.826 69.904-155.826 155.826S170.078 411.826 256 411.826 411.826 341.922 411.826 256 341.923 100.174 256 100.174zm0 278.26c-67.5 0-122.435-54.924-122.435-122.435S188.5 133.565 256 133.565 378.435 188.5 378.435 256 323.5 378.435 256 378.435z"/><path id="N" d="M256 166.957c-49.1 0-89.043 39.945-89.043 89.043a16.7 16.7 0 0 0 16.696 16.696A16.7 16.7 0 0 0 200.349 256c0-30.687 24.966-55.652 55.652-55.652a16.7 16.7 0 0 0 16.696-16.696A16.7 16.7 0 0 0 256 166.957z"/></defs></svg>