<svg xmlns="http://www.w3.org/2000/svg" viewBox="0 0 512 512"><path d="M497.36 69.995c-7.532-7.545-19.753-7.558-27.285-.032L238.582 300.845l-83.522-90.713c-7.217-7.834-19.419-8.342-27.266-1.126-7.841 7.217-8.343 19.425-1.126 27.266l97.126 105.481a19.273 19.273 0 0013.784 6.22c.141.006.277.006.412.006a19.317 19.317 0 0013.623-5.628L497.322 97.286c7.551-7.525 7.564-19.746.038-27.291z"/><path d="M492.703 236.703c-10.658 0-19.296 8.638-19.296 19.297 0 119.883-97.524 217.407-217.407 217.407-119.876 0-217.407-97.524-217.407-217.407 0-119.876 97.531-217.407 217.407-217.407 10.658 0 19.297-8.638 19.297-19.296C275.297 8.638 266.658 0 256 0 114.84 0 0 114.84 0 256c0 141.154 114.84 256 256 256 141.154 0 256-114.846 256-256 0-10.658-8.638-19.297-19.297-19.297z"/></svg>